M48
;DRILL file {KiCad 4.0.7} date 02/11/18 23:41:14
;FORMAT={-:-/ absolute / metric / decimal}
FMAT,2
METRIC,TZ
T1C0.600
T2C0.800
T3C1.000
T4C1.100
T5C1.118
T6C1.200
T7C1.300
T8C4.300
%
G90
G05
M71
T1
X174.61Y-91.27
T2
X115.6Y-73.33
X120.6Y-73.33
T3
X148.52Y-46.36
X150.13Y-91.39
X151.06Y-46.36
X152.67Y-91.39
X153.6Y-46.36
X155.21Y-91.39
X160.73Y-46.45
X163.27Y-46.45
X165.81Y-46.45
T4
X110.25Y-66.63
X110.25Y-76.79
X127.61Y-62.97
X137.77Y-62.97
X166.48Y-53.07
X166.48Y-65.77
T5
X128.53Y-68.19
X128.53Y-70.73
X128.53Y-73.27
X128.53Y-75.81
X136.15Y-68.19
X136.15Y-70.73
X136.15Y-73.27
X136.15Y-75.81
T6
X82.12Y-75.76
X97.37Y-55.85
X97.37Y-63.35
X102.44Y-75.76
X111.46Y-56.37
X118.96Y-56.37
X141.23Y-78.35
X141.36Y-53.37
X143.77Y-57.88
X143.77Y-72.88
X153.32Y-58.12
X153.32Y-73.12
X156.47Y-78.35
X156.6Y-53.37
T7
X84.64Y-52.
X84.64Y-57.1
X84.64Y-62.2
X84.64Y-67.3
X115.39Y-81.25
X120.39Y-81.25
X125.39Y-81.25
X141.36Y-85.74
X146.36Y-85.74
T8
X70.54Y-50.25
X70.73Y-68.53
X173.33Y-53.09
X173.33Y-68.81
T0
M30
