G04 #@! TF.FileFunction,Copper,L2,Bot,Signal*
%FSLAX46Y46*%
G04 Gerber Fmt 4.6, Leading zero omitted, Abs format (unit mm)*
G04 Created by KiCad (PCBNEW 4.0.7) date 02/11/18 23:41:10*
%MOMM*%
%LPD*%
G01*
G04 APERTURE LIST*
%ADD10C,0.100000*%
%ADD11R,2.400000X2.400000*%
%ADD12C,2.400000*%
%ADD13R,1.600000X1.600000*%
%ADD14C,1.600000*%
%ADD15R,2.100000X2.100000*%
%ADD16C,2.100000*%
%ADD17R,2.200000X2.200000*%
%ADD18O,2.200000X2.200000*%
%ADD19R,1.800000X1.800000*%
%ADD20O,1.800000X1.800000*%
%ADD21O,2.400000X2.400000*%
%ADD22C,2.340000*%
%ADD23C,8.600000*%
%ADD24R,1.676400X1.676400*%
%ADD25C,1.676400*%
%ADD26C,2.600000*%
%ADD27C,0.900000*%
%ADD28C,1.000000*%
%ADD29C,0.254000*%
G04 APERTURE END LIST*
D10*
D11*
X97370000Y-63350000D03*
D12*
X97370000Y-55850000D03*
D13*
X115600000Y-73330000D03*
D14*
X120600000Y-73330000D03*
D12*
X143770000Y-72880000D03*
X143770000Y-57880000D03*
X153320000Y-58120000D03*
X153320000Y-73120000D03*
D15*
X84640000Y-52000000D03*
D16*
X84640000Y-57100000D03*
X84640000Y-67300000D03*
X84640000Y-62200000D03*
D17*
X110250000Y-66630000D03*
D18*
X110250000Y-76790000D03*
D17*
X166480000Y-53070000D03*
D18*
X166480000Y-65770000D03*
D19*
X148520000Y-46360000D03*
D20*
X151060000Y-46360000D03*
X153600000Y-46360000D03*
D19*
X160730000Y-46450000D03*
D20*
X163270000Y-46450000D03*
X165810000Y-46450000D03*
D12*
X102440000Y-75760000D03*
D21*
X82120000Y-75760000D03*
D12*
X156600000Y-53370000D03*
D21*
X141360000Y-53370000D03*
D12*
X156470000Y-78350000D03*
D21*
X141230000Y-78350000D03*
D22*
X125390000Y-81250000D03*
X120390000Y-81250000D03*
X115390000Y-81250000D03*
D23*
X70540000Y-50250000D03*
X70730000Y-68530000D03*
X173330000Y-68810000D03*
X173330000Y-53090000D03*
D24*
X128530000Y-68190000D03*
D25*
X128530000Y-70730000D03*
X128530000Y-73270000D03*
X128530000Y-75810000D03*
X136150000Y-75810000D03*
X136150000Y-73270000D03*
X136150000Y-70730000D03*
X136150000Y-68190000D03*
D17*
X137770000Y-62970000D03*
D18*
X127610000Y-62970000D03*
D11*
X118960000Y-56370000D03*
D12*
X111460000Y-56370000D03*
D19*
X155210000Y-91390000D03*
D20*
X152670000Y-91390000D03*
X150130000Y-91390000D03*
D26*
X146360000Y-85740000D03*
X141360000Y-85740000D03*
D27*
X174610000Y-91270000D03*
D28*
X115640000Y-49850000D02*
X119130000Y-46360000D01*
X119130000Y-46360000D02*
X148520000Y-46360000D01*
X115640000Y-56240000D02*
X115640000Y-49850000D01*
X111680000Y-60200000D02*
X115640000Y-56240000D01*
X102720000Y-60200000D02*
X111680000Y-60200000D01*
X97370000Y-63350000D02*
X99570000Y-63350000D01*
X99570000Y-63350000D02*
X102720000Y-60200000D01*
X84640000Y-67300000D02*
X95620000Y-67300000D01*
X95620000Y-67300000D02*
X97370000Y-65550000D01*
X97370000Y-65550000D02*
X97370000Y-63350000D01*
X97370000Y-55850000D02*
X110940000Y-55850000D01*
X110940000Y-55850000D02*
X111460000Y-56370000D01*
X93520000Y-52000000D02*
X97370000Y-55850000D01*
X84770000Y-62240000D02*
X77020000Y-62240000D01*
X115600000Y-73330000D02*
X115600000Y-81040000D01*
X115600000Y-81040000D02*
X115390000Y-81250000D01*
X120390000Y-78240000D02*
X125360000Y-73270000D01*
X125360000Y-73270000D02*
X128530000Y-73270000D01*
X120390000Y-81250000D02*
X120390000Y-78240000D01*
X120390000Y-81250000D02*
X115390000Y-81250000D01*
X153600000Y-46360000D02*
X160640000Y-46360000D01*
X160640000Y-46360000D02*
X160730000Y-46450000D01*
X153320000Y-73120000D02*
X144010000Y-73120000D01*
X144010000Y-73120000D02*
X143770000Y-72880000D01*
X136150000Y-73270000D02*
X143380000Y-73270000D01*
X143380000Y-73270000D02*
X143770000Y-72880000D01*
X143770000Y-57880000D02*
X142860000Y-57880000D01*
X142860000Y-57880000D02*
X137770000Y-62970000D01*
X137770000Y-62970000D02*
X137770000Y-66570000D01*
X137770000Y-66570000D02*
X136150000Y-68190000D01*
X84770000Y-57140000D02*
X77430000Y-57140000D01*
X77430000Y-57140000D02*
X70540000Y-50250000D01*
X84640000Y-52000000D02*
X93520000Y-52000000D01*
X70730000Y-68530000D02*
X77960000Y-75760000D01*
X77960000Y-75760000D02*
X82120000Y-75760000D01*
X77020000Y-62240000D02*
X70730000Y-68530000D01*
X127610000Y-62970000D02*
X127610000Y-67270000D01*
X127610000Y-67270000D02*
X128530000Y-68190000D01*
X120850000Y-67850000D02*
X121190000Y-68190000D01*
X121190000Y-68190000D02*
X128530000Y-68190000D01*
X120850000Y-67850000D02*
X111470000Y-67850000D01*
X111470000Y-67850000D02*
X110250000Y-66630000D01*
X118960000Y-56370000D02*
X118960000Y-58570000D01*
X118960000Y-58570000D02*
X110900000Y-66630000D01*
X110900000Y-66630000D02*
X110250000Y-66630000D01*
X102440000Y-75760000D02*
X109220000Y-75760000D01*
X109220000Y-75760000D02*
X110250000Y-76790000D01*
X151850001Y-52170001D02*
X151060000Y-51380000D01*
X151060000Y-51380000D02*
X151060000Y-46360000D01*
X156600000Y-53370000D02*
X155400001Y-52170001D01*
X155400001Y-52170001D02*
X151850001Y-52170001D01*
X159069999Y-77150001D02*
X163270000Y-72950000D01*
X163270000Y-72950000D02*
X163270000Y-46450000D01*
X156470000Y-78350000D02*
X157669999Y-77150001D01*
X157669999Y-77150001D02*
X159069999Y-77150001D01*
X146000000Y-53370000D02*
X141360000Y-53370000D01*
X148530000Y-55900000D02*
X146000000Y-53370000D01*
X148530000Y-62160000D02*
X148530000Y-55900000D01*
X140798199Y-69891801D02*
X148530000Y-62160000D01*
X136150000Y-70730000D02*
X136988199Y-69891801D01*
X136988199Y-69891801D02*
X140798199Y-69891801D01*
X136150000Y-75810000D02*
X138690000Y-75810000D01*
X138690000Y-75810000D02*
X141230000Y-78350000D01*
X132490000Y-78410000D02*
X129650000Y-81250000D01*
X129650000Y-81250000D02*
X125390000Y-81250000D01*
X132490000Y-72280000D02*
X132490000Y-78410000D01*
X130940000Y-70730000D02*
X132490000Y-72280000D01*
X128530000Y-70730000D02*
X130940000Y-70730000D01*
X149880000Y-85830000D02*
X152670000Y-88620000D01*
X152670000Y-88620000D02*
X152670000Y-91390000D01*
X148288477Y-85830000D02*
X149880000Y-85830000D01*
X146360000Y-85740000D02*
X148198477Y-85740000D01*
X148198477Y-85740000D02*
X148288477Y-85830000D01*
X155210000Y-91390000D02*
X174490000Y-91390000D01*
X174490000Y-91390000D02*
X174610000Y-91270000D01*
D29*
G36*
X180530000Y-93280000D02*
X64970000Y-93280000D01*
X64970000Y-86123207D01*
X139424665Y-86123207D01*
X139718630Y-86834658D01*
X140262479Y-87379457D01*
X140973416Y-87674663D01*
X141743207Y-87675335D01*
X142454658Y-87381370D01*
X142999457Y-86837521D01*
X143294663Y-86126584D01*
X143294665Y-86123207D01*
X144424665Y-86123207D01*
X144718630Y-86834658D01*
X145262479Y-87379457D01*
X145973416Y-87674663D01*
X146743207Y-87675335D01*
X147454658Y-87381370D01*
X147940995Y-86895881D01*
X148288477Y-86965000D01*
X149409868Y-86965000D01*
X151535000Y-89090132D01*
X151535000Y-90333803D01*
X151400000Y-90535845D01*
X151245481Y-90304591D01*
X150747491Y-89971845D01*
X150160072Y-89855000D01*
X150099928Y-89855000D01*
X149512509Y-89971845D01*
X149014519Y-90304591D01*
X148681773Y-90802581D01*
X148564928Y-91390000D01*
X148681773Y-91977419D01*
X149014519Y-92475409D01*
X149512509Y-92808155D01*
X150099928Y-92925000D01*
X150160072Y-92925000D01*
X150747491Y-92808155D01*
X151245481Y-92475409D01*
X151400000Y-92244155D01*
X151554519Y-92475409D01*
X152052509Y-92808155D01*
X152639928Y-92925000D01*
X152700072Y-92925000D01*
X153287491Y-92808155D01*
X153708026Y-92527163D01*
X153845910Y-92741441D01*
X154058110Y-92886431D01*
X154310000Y-92937440D01*
X156110000Y-92937440D01*
X156345317Y-92893162D01*
X156561441Y-92754090D01*
X156706431Y-92541890D01*
X156709851Y-92525000D01*
X174490000Y-92525000D01*
X174924346Y-92438603D01*
X175292566Y-92192566D01*
X175412566Y-92072566D01*
X175658604Y-91704345D01*
X175745000Y-91270000D01*
X175658604Y-90835654D01*
X175412566Y-90467434D01*
X175044346Y-90221396D01*
X174610000Y-90135000D01*
X174175655Y-90221396D01*
X174125363Y-90255000D01*
X156713222Y-90255000D01*
X156713162Y-90254683D01*
X156574090Y-90038559D01*
X156361890Y-89893569D01*
X156110000Y-89842560D01*
X154310000Y-89842560D01*
X154074683Y-89886838D01*
X153858559Y-90025910D01*
X153805000Y-90104296D01*
X153805000Y-88620000D01*
X153718603Y-88185654D01*
X153472566Y-87817434D01*
X150682566Y-85027434D01*
X150314346Y-84781397D01*
X149880000Y-84695000D01*
X148638215Y-84695000D01*
X148632823Y-84691397D01*
X148198477Y-84605000D01*
X147961098Y-84605000D01*
X147457521Y-84100543D01*
X146746584Y-83805337D01*
X145976793Y-83804665D01*
X145265342Y-84098630D01*
X144720543Y-84642479D01*
X144425337Y-85353416D01*
X144424665Y-86123207D01*
X143294665Y-86123207D01*
X143295335Y-85356793D01*
X143001370Y-84645342D01*
X142457521Y-84100543D01*
X141746584Y-83805337D01*
X140976793Y-83804665D01*
X140265342Y-84098630D01*
X139720543Y-84642479D01*
X139425337Y-85353416D01*
X139424665Y-86123207D01*
X64970000Y-86123207D01*
X64970000Y-69507325D01*
X65794146Y-69507325D01*
X66543871Y-71321801D01*
X67930897Y-72711250D01*
X69744061Y-73464141D01*
X71707325Y-73465854D01*
X73372632Y-72777764D01*
X77157434Y-76562566D01*
X77525654Y-76808603D01*
X77960000Y-76895000D01*
X80677903Y-76895000D01*
X80786509Y-77057541D01*
X81381826Y-77455319D01*
X82084050Y-77595000D01*
X82155950Y-77595000D01*
X82858174Y-77455319D01*
X83453491Y-77057541D01*
X83851269Y-76462224D01*
X83918664Y-76123403D01*
X100604682Y-76123403D01*
X100883455Y-76798086D01*
X101399199Y-77314730D01*
X102073395Y-77594681D01*
X102803403Y-77595318D01*
X103478086Y-77316545D01*
X103900367Y-76895000D01*
X108529125Y-76895000D01*
X108647069Y-77487947D01*
X109023170Y-78050821D01*
X109586044Y-78426922D01*
X110250000Y-78558991D01*
X110913956Y-78426922D01*
X111476830Y-78050821D01*
X111852931Y-77487947D01*
X111985000Y-76823991D01*
X111985000Y-76756009D01*
X111852931Y-76092053D01*
X111476830Y-75529179D01*
X110913956Y-75153078D01*
X110250000Y-75021009D01*
X110113327Y-75048195D01*
X110022566Y-74957434D01*
X110018446Y-74954681D01*
X109654346Y-74711397D01*
X109220000Y-74625000D01*
X103899800Y-74625000D01*
X103480801Y-74205270D01*
X102806605Y-73925319D01*
X102076597Y-73924682D01*
X101401914Y-74203455D01*
X100885270Y-74719199D01*
X100605319Y-75393395D01*
X100604682Y-76123403D01*
X83918664Y-76123403D01*
X83990950Y-75760000D01*
X83851269Y-75057776D01*
X83453491Y-74462459D01*
X82858174Y-74064681D01*
X82155950Y-73925000D01*
X82084050Y-73925000D01*
X81381826Y-74064681D01*
X80786509Y-74462459D01*
X80677903Y-74625000D01*
X78430132Y-74625000D01*
X74976675Y-71171543D01*
X75664141Y-69515939D01*
X75665783Y-67633697D01*
X82954708Y-67633697D01*
X83210694Y-68253229D01*
X83684278Y-68727640D01*
X84303362Y-68984707D01*
X84973697Y-68985292D01*
X85593229Y-68729306D01*
X85888049Y-68435000D01*
X95620000Y-68435000D01*
X96054346Y-68348603D01*
X96422566Y-68102566D01*
X98172566Y-66352566D01*
X98260210Y-66221397D01*
X98418603Y-65984346D01*
X98505000Y-65550000D01*
X98505000Y-65530000D01*
X108502560Y-65530000D01*
X108502560Y-67730000D01*
X108546838Y-67965317D01*
X108685910Y-68181441D01*
X108898110Y-68326431D01*
X109150000Y-68377440D01*
X110392307Y-68377440D01*
X110667434Y-68652567D01*
X111035655Y-68898604D01*
X111470000Y-68985000D01*
X120379868Y-68985000D01*
X120387434Y-68992566D01*
X120755655Y-69238604D01*
X121190000Y-69325000D01*
X127128201Y-69325000D01*
X127227710Y-69479641D01*
X127439910Y-69624631D01*
X127533145Y-69643512D01*
X127281810Y-69894409D01*
X127057056Y-70435677D01*
X127056545Y-71021752D01*
X127280353Y-71563411D01*
X127694409Y-71978190D01*
X127746392Y-71999775D01*
X127696589Y-72020353D01*
X127581742Y-72135000D01*
X125360000Y-72135000D01*
X124925654Y-72221397D01*
X124557434Y-72467434D01*
X119587434Y-77437434D01*
X119341397Y-77805654D01*
X119255000Y-78240000D01*
X119255000Y-79832590D01*
X118972097Y-80115000D01*
X116807410Y-80115000D01*
X116735000Y-80042463D01*
X116735000Y-74669018D01*
X116851441Y-74594090D01*
X116996431Y-74381890D01*
X117047440Y-74130000D01*
X117047440Y-72530000D01*
X117003162Y-72294683D01*
X116864090Y-72078559D01*
X116651890Y-71933569D01*
X116400000Y-71882560D01*
X114800000Y-71882560D01*
X114564683Y-71926838D01*
X114348559Y-72065910D01*
X114203569Y-72278110D01*
X114152560Y-72530000D01*
X114152560Y-74130000D01*
X114196838Y-74365317D01*
X114335910Y-74581441D01*
X114465000Y-74669644D01*
X114465000Y-79679189D01*
X114368885Y-79718903D01*
X113860688Y-80226215D01*
X113585314Y-80889388D01*
X113584687Y-81607462D01*
X113858903Y-82271115D01*
X114366215Y-82779312D01*
X115029388Y-83054686D01*
X115747462Y-83055313D01*
X116411115Y-82781097D01*
X116807903Y-82385000D01*
X118972590Y-82385000D01*
X119366215Y-82779312D01*
X120029388Y-83054686D01*
X120747462Y-83055313D01*
X121411115Y-82781097D01*
X121919312Y-82273785D01*
X122194686Y-81610612D01*
X122195313Y-80892538D01*
X121921097Y-80228885D01*
X121525000Y-79832097D01*
X121525000Y-78710132D01*
X125830132Y-74405000D01*
X127581416Y-74405000D01*
X127694409Y-74518190D01*
X128235677Y-74742944D01*
X128821752Y-74743455D01*
X129363411Y-74519647D01*
X129778190Y-74105591D01*
X130002944Y-73564323D01*
X130003455Y-72978248D01*
X129779647Y-72436589D01*
X129365591Y-72021810D01*
X129313608Y-72000225D01*
X129363411Y-71979647D01*
X129478258Y-71865000D01*
X130469868Y-71865000D01*
X131355000Y-72750132D01*
X131355000Y-77939867D01*
X129179868Y-80115000D01*
X126807410Y-80115000D01*
X126413785Y-79720688D01*
X125750612Y-79445314D01*
X125032538Y-79444687D01*
X124368885Y-79718903D01*
X123860688Y-80226215D01*
X123585314Y-80889388D01*
X123584687Y-81607462D01*
X123858903Y-82271115D01*
X124366215Y-82779312D01*
X125029388Y-83054686D01*
X125747462Y-83055313D01*
X126411115Y-82781097D01*
X126807903Y-82385000D01*
X129650000Y-82385000D01*
X130084346Y-82298603D01*
X130452566Y-82052566D01*
X133292567Y-79212566D01*
X133538604Y-78844345D01*
X133625000Y-78410000D01*
X133625000Y-72280000D01*
X133538603Y-71845654D01*
X133292566Y-71477434D01*
X131742566Y-69927434D01*
X131693141Y-69894409D01*
X131374346Y-69681397D01*
X130940000Y-69595000D01*
X129660025Y-69595000D01*
X129819641Y-69492290D01*
X129964631Y-69280090D01*
X130015640Y-69028200D01*
X130015640Y-68481752D01*
X134676545Y-68481752D01*
X134900353Y-69023411D01*
X135314409Y-69438190D01*
X135366392Y-69459775D01*
X135316589Y-69480353D01*
X134901810Y-69894409D01*
X134677056Y-70435677D01*
X134676545Y-71021752D01*
X134900353Y-71563411D01*
X135314409Y-71978190D01*
X135366392Y-71999775D01*
X135316589Y-72020353D01*
X134901810Y-72434409D01*
X134677056Y-72975677D01*
X134676545Y-73561752D01*
X134900353Y-74103411D01*
X135314409Y-74518190D01*
X135366392Y-74539775D01*
X135316589Y-74560353D01*
X134901810Y-74974409D01*
X134677056Y-75515677D01*
X134676545Y-76101752D01*
X134900353Y-76643411D01*
X135314409Y-77058190D01*
X135855677Y-77282944D01*
X136441752Y-77283455D01*
X136983411Y-77059647D01*
X137098258Y-76945000D01*
X138219868Y-76945000D01*
X139403152Y-78128285D01*
X139359050Y-78350000D01*
X139498731Y-79052224D01*
X139896509Y-79647541D01*
X140491826Y-80045319D01*
X141194050Y-80185000D01*
X141265950Y-80185000D01*
X141968174Y-80045319D01*
X142563491Y-79647541D01*
X142961269Y-79052224D01*
X143100950Y-78350000D01*
X142961269Y-77647776D01*
X142563491Y-77052459D01*
X141968174Y-76654681D01*
X141265950Y-76515000D01*
X141194050Y-76515000D01*
X141032306Y-76547173D01*
X139492566Y-75007434D01*
X139414569Y-74955318D01*
X139124346Y-74761397D01*
X138690000Y-74675000D01*
X137098584Y-74675000D01*
X136985591Y-74561810D01*
X136933608Y-74540225D01*
X136983411Y-74519647D01*
X137098258Y-74405000D01*
X142699521Y-74405000D01*
X142729199Y-74434730D01*
X143403395Y-74714681D01*
X144133403Y-74715318D01*
X144808086Y-74436545D01*
X144989948Y-74255000D01*
X151860200Y-74255000D01*
X152279199Y-74674730D01*
X152953395Y-74954681D01*
X153683403Y-74955318D01*
X154358086Y-74676545D01*
X154874730Y-74160801D01*
X155154681Y-73486605D01*
X155155318Y-72756597D01*
X154876545Y-72081914D01*
X154360801Y-71565270D01*
X153686605Y-71285319D01*
X152956597Y-71284682D01*
X152281914Y-71563455D01*
X151859633Y-71985000D01*
X145385667Y-71985000D01*
X145326545Y-71841914D01*
X144810801Y-71325270D01*
X144136605Y-71045319D01*
X143406597Y-71044682D01*
X142731914Y-71323455D01*
X142215270Y-71839199D01*
X142092443Y-72135000D01*
X137098584Y-72135000D01*
X136985591Y-72021810D01*
X136933608Y-72000225D01*
X136983411Y-71979647D01*
X137398190Y-71565591D01*
X137621915Y-71026801D01*
X140798199Y-71026801D01*
X141232545Y-70940404D01*
X141600765Y-70694367D01*
X149332566Y-62962566D01*
X149363912Y-62915654D01*
X149578603Y-62594346D01*
X149665000Y-62160000D01*
X149665000Y-58483403D01*
X151484682Y-58483403D01*
X151763455Y-59158086D01*
X152279199Y-59674730D01*
X152953395Y-59954681D01*
X153683403Y-59955318D01*
X154358086Y-59676545D01*
X154874730Y-59160801D01*
X155154681Y-58486605D01*
X155155318Y-57756597D01*
X154876545Y-57081914D01*
X154360801Y-56565270D01*
X153686605Y-56285319D01*
X152956597Y-56284682D01*
X152281914Y-56563455D01*
X151765270Y-57079199D01*
X151485319Y-57753395D01*
X151484682Y-58483403D01*
X149665000Y-58483403D01*
X149665000Y-55900000D01*
X149578603Y-55465654D01*
X149332566Y-55097434D01*
X146802566Y-52567434D01*
X146724093Y-52515000D01*
X146434346Y-52321397D01*
X146000000Y-52235000D01*
X142802097Y-52235000D01*
X142693491Y-52072459D01*
X142098174Y-51674681D01*
X141395950Y-51535000D01*
X141324050Y-51535000D01*
X140621826Y-51674681D01*
X140026509Y-52072459D01*
X139628731Y-52667776D01*
X139489050Y-53370000D01*
X139628731Y-54072224D01*
X140026509Y-54667541D01*
X140621826Y-55065319D01*
X141324050Y-55205000D01*
X141395950Y-55205000D01*
X142098174Y-55065319D01*
X142693491Y-54667541D01*
X142802097Y-54505000D01*
X145529868Y-54505000D01*
X147395000Y-56370132D01*
X147395000Y-61689868D01*
X140328067Y-68756801D01*
X137509801Y-68756801D01*
X137622944Y-68484323D01*
X137623085Y-68322047D01*
X138572566Y-67372566D01*
X138818603Y-67004346D01*
X138905000Y-66570000D01*
X138905000Y-64710854D01*
X139105317Y-64673162D01*
X139321441Y-64534090D01*
X139466431Y-64321890D01*
X139517440Y-64070000D01*
X139517440Y-62827692D01*
X142857236Y-59487896D01*
X143403395Y-59714681D01*
X144133403Y-59715318D01*
X144808086Y-59436545D01*
X145324730Y-58920801D01*
X145604681Y-58246605D01*
X145605318Y-57516597D01*
X145326545Y-56841914D01*
X144810801Y-56325270D01*
X144136605Y-56045319D01*
X143406597Y-56044682D01*
X142731914Y-56323455D01*
X142215270Y-56839199D01*
X142138968Y-57022955D01*
X142120941Y-57035000D01*
X142057434Y-57077434D01*
X137912308Y-61222560D01*
X136670000Y-61222560D01*
X136434683Y-61266838D01*
X136218559Y-61405910D01*
X136073569Y-61618110D01*
X136022560Y-61870000D01*
X136022560Y-64070000D01*
X136066838Y-64305317D01*
X136205910Y-64521441D01*
X136418110Y-64666431D01*
X136635000Y-64710352D01*
X136635000Y-66099868D01*
X136018184Y-66716684D01*
X135858248Y-66716545D01*
X135316589Y-66940353D01*
X134901810Y-67354409D01*
X134677056Y-67895677D01*
X134676545Y-68481752D01*
X130015640Y-68481752D01*
X130015640Y-67351800D01*
X129971362Y-67116483D01*
X129832290Y-66900359D01*
X129620090Y-66755369D01*
X129368200Y-66704360D01*
X128745000Y-66704360D01*
X128745000Y-64280901D01*
X128870821Y-64196830D01*
X129246922Y-63633956D01*
X129378991Y-62970000D01*
X129246922Y-62306044D01*
X128870821Y-61743170D01*
X128307947Y-61367069D01*
X127643991Y-61235000D01*
X127576009Y-61235000D01*
X126912053Y-61367069D01*
X126349179Y-61743170D01*
X125973078Y-62306044D01*
X125841009Y-62970000D01*
X125973078Y-63633956D01*
X126349179Y-64196830D01*
X126475000Y-64280901D01*
X126475000Y-67055000D01*
X121660132Y-67055000D01*
X121652566Y-67047434D01*
X121526743Y-66963362D01*
X121284346Y-66801397D01*
X120850000Y-66715000D01*
X112420132Y-66715000D01*
X119762566Y-59372566D01*
X120008603Y-59004346D01*
X120095000Y-58570000D01*
X120095000Y-58217440D01*
X120160000Y-58217440D01*
X120395317Y-58173162D01*
X120611441Y-58034090D01*
X120756431Y-57821890D01*
X120807440Y-57570000D01*
X120807440Y-55170000D01*
X120763162Y-54934683D01*
X120624090Y-54718559D01*
X120411890Y-54573569D01*
X120160000Y-54522560D01*
X117760000Y-54522560D01*
X117524683Y-54566838D01*
X117308559Y-54705910D01*
X117163569Y-54918110D01*
X117112560Y-55170000D01*
X117112560Y-57570000D01*
X117156838Y-57805317D01*
X117295910Y-58021441D01*
X117508110Y-58166431D01*
X117716281Y-58208587D01*
X111042308Y-64882560D01*
X109150000Y-64882560D01*
X108914683Y-64926838D01*
X108698559Y-65065910D01*
X108553569Y-65278110D01*
X108502560Y-65530000D01*
X98505000Y-65530000D01*
X98505000Y-65197440D01*
X98570000Y-65197440D01*
X98805317Y-65153162D01*
X99021441Y-65014090D01*
X99166431Y-64801890D01*
X99217440Y-64550000D01*
X99217440Y-64485000D01*
X99570000Y-64485000D01*
X100004346Y-64398603D01*
X100372566Y-64152566D01*
X103190132Y-61335000D01*
X111680000Y-61335000D01*
X112114346Y-61248603D01*
X112482566Y-61002566D01*
X116442566Y-57042566D01*
X116688604Y-56674345D01*
X116775000Y-56240000D01*
X116775000Y-50320132D01*
X119600132Y-47495000D01*
X147016778Y-47495000D01*
X147016838Y-47495317D01*
X147155910Y-47711441D01*
X147368110Y-47856431D01*
X147620000Y-47907440D01*
X149420000Y-47907440D01*
X149655317Y-47863162D01*
X149871441Y-47724090D01*
X149925000Y-47645704D01*
X149925000Y-51380000D01*
X150011397Y-51814346D01*
X150183863Y-52072459D01*
X150257434Y-52182566D01*
X151047435Y-52972567D01*
X151415655Y-53218604D01*
X151850001Y-53305001D01*
X154765056Y-53305001D01*
X154764682Y-53733403D01*
X155043455Y-54408086D01*
X155559199Y-54924730D01*
X156233395Y-55204681D01*
X156963403Y-55205318D01*
X157638086Y-54926545D01*
X158154730Y-54410801D01*
X158434681Y-53736605D01*
X158435318Y-53006597D01*
X158156545Y-52331914D01*
X157640801Y-51815270D01*
X156966605Y-51535319D01*
X156369930Y-51534798D01*
X156202567Y-51367435D01*
X156135407Y-51322560D01*
X155834347Y-51121398D01*
X155400001Y-51035001D01*
X152320133Y-51035001D01*
X152195000Y-50909868D01*
X152195000Y-47416197D01*
X152330000Y-47214155D01*
X152484519Y-47445409D01*
X152982509Y-47778155D01*
X153569928Y-47895000D01*
X153630072Y-47895000D01*
X154217491Y-47778155D01*
X154641263Y-47495000D01*
X159209844Y-47495000D01*
X159226838Y-47585317D01*
X159365910Y-47801441D01*
X159578110Y-47946431D01*
X159830000Y-47997440D01*
X161630000Y-47997440D01*
X161865317Y-47953162D01*
X162081441Y-47814090D01*
X162135000Y-47735704D01*
X162135000Y-72479868D01*
X158599867Y-76015001D01*
X157669999Y-76015001D01*
X157235653Y-76101398D01*
X156867433Y-76347435D01*
X156699668Y-76515200D01*
X156106597Y-76514682D01*
X155431914Y-76793455D01*
X154915270Y-77309199D01*
X154635319Y-77983395D01*
X154634682Y-78713403D01*
X154913455Y-79388086D01*
X155429199Y-79904730D01*
X156103395Y-80184681D01*
X156833403Y-80185318D01*
X157508086Y-79906545D01*
X158024730Y-79390801D01*
X158304681Y-78716605D01*
X158305058Y-78285001D01*
X159069999Y-78285001D01*
X159504345Y-78198604D01*
X159872565Y-77952567D01*
X164072566Y-73752566D01*
X164318603Y-73384346D01*
X164346638Y-73243403D01*
X164405000Y-72950000D01*
X164405000Y-69787325D01*
X168394146Y-69787325D01*
X169143871Y-71601801D01*
X170530897Y-72991250D01*
X172344061Y-73744141D01*
X174307325Y-73745854D01*
X176121801Y-72996129D01*
X177511250Y-71609103D01*
X178264141Y-69795939D01*
X178265854Y-67832675D01*
X177516129Y-66018199D01*
X176129103Y-64628750D01*
X174315939Y-63875859D01*
X172352675Y-63874146D01*
X170538199Y-64623871D01*
X169148750Y-66010897D01*
X168395859Y-67824061D01*
X168394146Y-69787325D01*
X164405000Y-69787325D01*
X164405000Y-65736009D01*
X164745000Y-65736009D01*
X164745000Y-65803991D01*
X164877069Y-66467947D01*
X165253170Y-67030821D01*
X165816044Y-67406922D01*
X166480000Y-67538991D01*
X167143956Y-67406922D01*
X167706830Y-67030821D01*
X168082931Y-66467947D01*
X168215000Y-65803991D01*
X168215000Y-65736009D01*
X168082931Y-65072053D01*
X167706830Y-64509179D01*
X167143956Y-64133078D01*
X166480000Y-64001009D01*
X165816044Y-64133078D01*
X165253170Y-64509179D01*
X164877069Y-65072053D01*
X164745000Y-65736009D01*
X164405000Y-65736009D01*
X164405000Y-51970000D01*
X164732560Y-51970000D01*
X164732560Y-54170000D01*
X164776838Y-54405317D01*
X164915910Y-54621441D01*
X165128110Y-54766431D01*
X165380000Y-54817440D01*
X167580000Y-54817440D01*
X167815317Y-54773162D01*
X168031441Y-54634090D01*
X168176431Y-54421890D01*
X168227440Y-54170000D01*
X168227440Y-54067325D01*
X168394146Y-54067325D01*
X169143871Y-55881801D01*
X170530897Y-57271250D01*
X172344061Y-58024141D01*
X174307325Y-58025854D01*
X176121801Y-57276129D01*
X177511250Y-55889103D01*
X178264141Y-54075939D01*
X178265854Y-52112675D01*
X177516129Y-50298199D01*
X176129103Y-48908750D01*
X174315939Y-48155859D01*
X172352675Y-48154146D01*
X170538199Y-48903871D01*
X169148750Y-50290897D01*
X168395859Y-52104061D01*
X168394146Y-54067325D01*
X168227440Y-54067325D01*
X168227440Y-51970000D01*
X168183162Y-51734683D01*
X168044090Y-51518559D01*
X167831890Y-51373569D01*
X167580000Y-51322560D01*
X165380000Y-51322560D01*
X165144683Y-51366838D01*
X164928559Y-51505910D01*
X164783569Y-51718110D01*
X164732560Y-51970000D01*
X164405000Y-51970000D01*
X164405000Y-47506197D01*
X164718227Y-47037419D01*
X164835072Y-46450000D01*
X164718227Y-45862581D01*
X164385481Y-45364591D01*
X163887491Y-45031845D01*
X163300072Y-44915000D01*
X163239928Y-44915000D01*
X162652509Y-45031845D01*
X162231974Y-45312837D01*
X162094090Y-45098559D01*
X161881890Y-44953569D01*
X161630000Y-44902560D01*
X159830000Y-44902560D01*
X159594683Y-44946838D01*
X159378559Y-45085910D01*
X159283523Y-45225000D01*
X154641263Y-45225000D01*
X154217491Y-44941845D01*
X153630072Y-44825000D01*
X153569928Y-44825000D01*
X152982509Y-44941845D01*
X152484519Y-45274591D01*
X152330000Y-45505845D01*
X152175481Y-45274591D01*
X151677491Y-44941845D01*
X151090072Y-44825000D01*
X151029928Y-44825000D01*
X150442509Y-44941845D01*
X150021974Y-45222837D01*
X149884090Y-45008559D01*
X149671890Y-44863569D01*
X149420000Y-44812560D01*
X147620000Y-44812560D01*
X147384683Y-44856838D01*
X147168559Y-44995910D01*
X147023569Y-45208110D01*
X147020149Y-45225000D01*
X119130000Y-45225000D01*
X118695654Y-45311397D01*
X118327434Y-45557434D01*
X114837434Y-49047434D01*
X114591397Y-49415654D01*
X114505000Y-49850000D01*
X114505000Y-55769868D01*
X111209868Y-59065000D01*
X102720000Y-59065000D01*
X102285654Y-59151397D01*
X101954652Y-59372566D01*
X101917434Y-59397434D01*
X99209114Y-62105754D01*
X99173162Y-61914683D01*
X99034090Y-61698559D01*
X98821890Y-61553569D01*
X98570000Y-61502560D01*
X96170000Y-61502560D01*
X95934683Y-61546838D01*
X95718559Y-61685910D01*
X95573569Y-61898110D01*
X95522560Y-62150000D01*
X95522560Y-64550000D01*
X95566838Y-64785317D01*
X95705910Y-65001441D01*
X95918110Y-65146431D01*
X96126281Y-65188587D01*
X95149868Y-66165000D01*
X85887852Y-66165000D01*
X85595722Y-65872360D01*
X84976638Y-65615293D01*
X84306303Y-65614708D01*
X83686771Y-65870694D01*
X83212360Y-66344278D01*
X82955293Y-66963362D01*
X82954708Y-67633697D01*
X75665783Y-67633697D01*
X75665854Y-67552675D01*
X74977764Y-65887368D01*
X77822566Y-63042566D01*
X78068603Y-62674346D01*
X78155000Y-62240000D01*
X78068603Y-61805655D01*
X77822566Y-61437434D01*
X77454345Y-61191397D01*
X77020000Y-61105000D01*
X76585654Y-61191397D01*
X76217434Y-61437434D01*
X73371543Y-64283325D01*
X71715939Y-63595859D01*
X69752675Y-63594146D01*
X67938199Y-64343871D01*
X66548750Y-65730897D01*
X65795859Y-67544061D01*
X65794146Y-69507325D01*
X64970000Y-69507325D01*
X64970000Y-51227325D01*
X65604146Y-51227325D01*
X66353871Y-53041801D01*
X67740897Y-54431250D01*
X69554061Y-55184141D01*
X71517325Y-55185854D01*
X73182632Y-54497764D01*
X76627433Y-57942566D01*
X76916412Y-58135655D01*
X76995654Y-58188603D01*
X77430000Y-58275000D01*
X83432078Y-58275000D01*
X83684278Y-58527640D01*
X84303362Y-58784707D01*
X84973697Y-58785292D01*
X85593229Y-58529306D01*
X86067640Y-58055722D01*
X86324707Y-57436638D01*
X86325292Y-56766303D01*
X86069306Y-56146771D01*
X85595722Y-55672360D01*
X84976638Y-55415293D01*
X84306303Y-55414708D01*
X83686771Y-55670694D01*
X83351881Y-56005000D01*
X77900133Y-56005000D01*
X74786675Y-52891542D01*
X75474141Y-51235939D01*
X75474390Y-50950000D01*
X82942560Y-50950000D01*
X82942560Y-53050000D01*
X82986838Y-53285317D01*
X83125910Y-53501441D01*
X83338110Y-53646431D01*
X83590000Y-53697440D01*
X85690000Y-53697440D01*
X85925317Y-53653162D01*
X86141441Y-53514090D01*
X86286431Y-53301890D01*
X86320227Y-53135000D01*
X93520000Y-53135000D01*
X93954346Y-53048603D01*
X94322566Y-52802566D01*
X94568603Y-52434346D01*
X94655000Y-52000000D01*
X94568603Y-51565654D01*
X94322566Y-51197434D01*
X93954346Y-50951397D01*
X93520000Y-50865000D01*
X86321446Y-50865000D01*
X86293162Y-50714683D01*
X86154090Y-50498559D01*
X85941890Y-50353569D01*
X85690000Y-50302560D01*
X83590000Y-50302560D01*
X83354683Y-50346838D01*
X83138559Y-50485910D01*
X82993569Y-50698110D01*
X82942560Y-50950000D01*
X75474390Y-50950000D01*
X75475854Y-49272675D01*
X74726129Y-47458199D01*
X73339103Y-46068750D01*
X71525939Y-45315859D01*
X69562675Y-45314146D01*
X67748199Y-46063871D01*
X66358750Y-47450897D01*
X65605859Y-49264061D01*
X65604146Y-51227325D01*
X64970000Y-51227325D01*
X64970000Y-43290000D01*
X180530000Y-43290000D01*
X180530000Y-93280000D01*
X180530000Y-93280000D01*
G37*
X180530000Y-93280000D02*
X64970000Y-93280000D01*
X64970000Y-86123207D01*
X139424665Y-86123207D01*
X139718630Y-86834658D01*
X140262479Y-87379457D01*
X140973416Y-87674663D01*
X141743207Y-87675335D01*
X142454658Y-87381370D01*
X142999457Y-86837521D01*
X143294663Y-86126584D01*
X143294665Y-86123207D01*
X144424665Y-86123207D01*
X144718630Y-86834658D01*
X145262479Y-87379457D01*
X145973416Y-87674663D01*
X146743207Y-87675335D01*
X147454658Y-87381370D01*
X147940995Y-86895881D01*
X148288477Y-86965000D01*
X149409868Y-86965000D01*
X151535000Y-89090132D01*
X151535000Y-90333803D01*
X151400000Y-90535845D01*
X151245481Y-90304591D01*
X150747491Y-89971845D01*
X150160072Y-89855000D01*
X150099928Y-89855000D01*
X149512509Y-89971845D01*
X149014519Y-90304591D01*
X148681773Y-90802581D01*
X148564928Y-91390000D01*
X148681773Y-91977419D01*
X149014519Y-92475409D01*
X149512509Y-92808155D01*
X150099928Y-92925000D01*
X150160072Y-92925000D01*
X150747491Y-92808155D01*
X151245481Y-92475409D01*
X151400000Y-92244155D01*
X151554519Y-92475409D01*
X152052509Y-92808155D01*
X152639928Y-92925000D01*
X152700072Y-92925000D01*
X153287491Y-92808155D01*
X153708026Y-92527163D01*
X153845910Y-92741441D01*
X154058110Y-92886431D01*
X154310000Y-92937440D01*
X156110000Y-92937440D01*
X156345317Y-92893162D01*
X156561441Y-92754090D01*
X156706431Y-92541890D01*
X156709851Y-92525000D01*
X174490000Y-92525000D01*
X174924346Y-92438603D01*
X175292566Y-92192566D01*
X175412566Y-92072566D01*
X175658604Y-91704345D01*
X175745000Y-91270000D01*
X175658604Y-90835654D01*
X175412566Y-90467434D01*
X175044346Y-90221396D01*
X174610000Y-90135000D01*
X174175655Y-90221396D01*
X174125363Y-90255000D01*
X156713222Y-90255000D01*
X156713162Y-90254683D01*
X156574090Y-90038559D01*
X156361890Y-89893569D01*
X156110000Y-89842560D01*
X154310000Y-89842560D01*
X154074683Y-89886838D01*
X153858559Y-90025910D01*
X153805000Y-90104296D01*
X153805000Y-88620000D01*
X153718603Y-88185654D01*
X153472566Y-87817434D01*
X150682566Y-85027434D01*
X150314346Y-84781397D01*
X149880000Y-84695000D01*
X148638215Y-84695000D01*
X148632823Y-84691397D01*
X148198477Y-84605000D01*
X147961098Y-84605000D01*
X147457521Y-84100543D01*
X146746584Y-83805337D01*
X145976793Y-83804665D01*
X145265342Y-84098630D01*
X144720543Y-84642479D01*
X144425337Y-85353416D01*
X144424665Y-86123207D01*
X143294665Y-86123207D01*
X143295335Y-85356793D01*
X143001370Y-84645342D01*
X142457521Y-84100543D01*
X141746584Y-83805337D01*
X140976793Y-83804665D01*
X140265342Y-84098630D01*
X139720543Y-84642479D01*
X139425337Y-85353416D01*
X139424665Y-86123207D01*
X64970000Y-86123207D01*
X64970000Y-69507325D01*
X65794146Y-69507325D01*
X66543871Y-71321801D01*
X67930897Y-72711250D01*
X69744061Y-73464141D01*
X71707325Y-73465854D01*
X73372632Y-72777764D01*
X77157434Y-76562566D01*
X77525654Y-76808603D01*
X77960000Y-76895000D01*
X80677903Y-76895000D01*
X80786509Y-77057541D01*
X81381826Y-77455319D01*
X82084050Y-77595000D01*
X82155950Y-77595000D01*
X82858174Y-77455319D01*
X83453491Y-77057541D01*
X83851269Y-76462224D01*
X83918664Y-76123403D01*
X100604682Y-76123403D01*
X100883455Y-76798086D01*
X101399199Y-77314730D01*
X102073395Y-77594681D01*
X102803403Y-77595318D01*
X103478086Y-77316545D01*
X103900367Y-76895000D01*
X108529125Y-76895000D01*
X108647069Y-77487947D01*
X109023170Y-78050821D01*
X109586044Y-78426922D01*
X110250000Y-78558991D01*
X110913956Y-78426922D01*
X111476830Y-78050821D01*
X111852931Y-77487947D01*
X111985000Y-76823991D01*
X111985000Y-76756009D01*
X111852931Y-76092053D01*
X111476830Y-75529179D01*
X110913956Y-75153078D01*
X110250000Y-75021009D01*
X110113327Y-75048195D01*
X110022566Y-74957434D01*
X110018446Y-74954681D01*
X109654346Y-74711397D01*
X109220000Y-74625000D01*
X103899800Y-74625000D01*
X103480801Y-74205270D01*
X102806605Y-73925319D01*
X102076597Y-73924682D01*
X101401914Y-74203455D01*
X100885270Y-74719199D01*
X100605319Y-75393395D01*
X100604682Y-76123403D01*
X83918664Y-76123403D01*
X83990950Y-75760000D01*
X83851269Y-75057776D01*
X83453491Y-74462459D01*
X82858174Y-74064681D01*
X82155950Y-73925000D01*
X82084050Y-73925000D01*
X81381826Y-74064681D01*
X80786509Y-74462459D01*
X80677903Y-74625000D01*
X78430132Y-74625000D01*
X74976675Y-71171543D01*
X75664141Y-69515939D01*
X75665783Y-67633697D01*
X82954708Y-67633697D01*
X83210694Y-68253229D01*
X83684278Y-68727640D01*
X84303362Y-68984707D01*
X84973697Y-68985292D01*
X85593229Y-68729306D01*
X85888049Y-68435000D01*
X95620000Y-68435000D01*
X96054346Y-68348603D01*
X96422566Y-68102566D01*
X98172566Y-66352566D01*
X98260210Y-66221397D01*
X98418603Y-65984346D01*
X98505000Y-65550000D01*
X98505000Y-65530000D01*
X108502560Y-65530000D01*
X108502560Y-67730000D01*
X108546838Y-67965317D01*
X108685910Y-68181441D01*
X108898110Y-68326431D01*
X109150000Y-68377440D01*
X110392307Y-68377440D01*
X110667434Y-68652567D01*
X111035655Y-68898604D01*
X111470000Y-68985000D01*
X120379868Y-68985000D01*
X120387434Y-68992566D01*
X120755655Y-69238604D01*
X121190000Y-69325000D01*
X127128201Y-69325000D01*
X127227710Y-69479641D01*
X127439910Y-69624631D01*
X127533145Y-69643512D01*
X127281810Y-69894409D01*
X127057056Y-70435677D01*
X127056545Y-71021752D01*
X127280353Y-71563411D01*
X127694409Y-71978190D01*
X127746392Y-71999775D01*
X127696589Y-72020353D01*
X127581742Y-72135000D01*
X125360000Y-72135000D01*
X124925654Y-72221397D01*
X124557434Y-72467434D01*
X119587434Y-77437434D01*
X119341397Y-77805654D01*
X119255000Y-78240000D01*
X119255000Y-79832590D01*
X118972097Y-80115000D01*
X116807410Y-80115000D01*
X116735000Y-80042463D01*
X116735000Y-74669018D01*
X116851441Y-74594090D01*
X116996431Y-74381890D01*
X117047440Y-74130000D01*
X117047440Y-72530000D01*
X117003162Y-72294683D01*
X116864090Y-72078559D01*
X116651890Y-71933569D01*
X116400000Y-71882560D01*
X114800000Y-71882560D01*
X114564683Y-71926838D01*
X114348559Y-72065910D01*
X114203569Y-72278110D01*
X114152560Y-72530000D01*
X114152560Y-74130000D01*
X114196838Y-74365317D01*
X114335910Y-74581441D01*
X114465000Y-74669644D01*
X114465000Y-79679189D01*
X114368885Y-79718903D01*
X113860688Y-80226215D01*
X113585314Y-80889388D01*
X113584687Y-81607462D01*
X113858903Y-82271115D01*
X114366215Y-82779312D01*
X115029388Y-83054686D01*
X115747462Y-83055313D01*
X116411115Y-82781097D01*
X116807903Y-82385000D01*
X118972590Y-82385000D01*
X119366215Y-82779312D01*
X120029388Y-83054686D01*
X120747462Y-83055313D01*
X121411115Y-82781097D01*
X121919312Y-82273785D01*
X122194686Y-81610612D01*
X122195313Y-80892538D01*
X121921097Y-80228885D01*
X121525000Y-79832097D01*
X121525000Y-78710132D01*
X125830132Y-74405000D01*
X127581416Y-74405000D01*
X127694409Y-74518190D01*
X128235677Y-74742944D01*
X128821752Y-74743455D01*
X129363411Y-74519647D01*
X129778190Y-74105591D01*
X130002944Y-73564323D01*
X130003455Y-72978248D01*
X129779647Y-72436589D01*
X129365591Y-72021810D01*
X129313608Y-72000225D01*
X129363411Y-71979647D01*
X129478258Y-71865000D01*
X130469868Y-71865000D01*
X131355000Y-72750132D01*
X131355000Y-77939867D01*
X129179868Y-80115000D01*
X126807410Y-80115000D01*
X126413785Y-79720688D01*
X125750612Y-79445314D01*
X125032538Y-79444687D01*
X124368885Y-79718903D01*
X123860688Y-80226215D01*
X123585314Y-80889388D01*
X123584687Y-81607462D01*
X123858903Y-82271115D01*
X124366215Y-82779312D01*
X125029388Y-83054686D01*
X125747462Y-83055313D01*
X126411115Y-82781097D01*
X126807903Y-82385000D01*
X129650000Y-82385000D01*
X130084346Y-82298603D01*
X130452566Y-82052566D01*
X133292567Y-79212566D01*
X133538604Y-78844345D01*
X133625000Y-78410000D01*
X133625000Y-72280000D01*
X133538603Y-71845654D01*
X133292566Y-71477434D01*
X131742566Y-69927434D01*
X131693141Y-69894409D01*
X131374346Y-69681397D01*
X130940000Y-69595000D01*
X129660025Y-69595000D01*
X129819641Y-69492290D01*
X129964631Y-69280090D01*
X130015640Y-69028200D01*
X130015640Y-68481752D01*
X134676545Y-68481752D01*
X134900353Y-69023411D01*
X135314409Y-69438190D01*
X135366392Y-69459775D01*
X135316589Y-69480353D01*
X134901810Y-69894409D01*
X134677056Y-70435677D01*
X134676545Y-71021752D01*
X134900353Y-71563411D01*
X135314409Y-71978190D01*
X135366392Y-71999775D01*
X135316589Y-72020353D01*
X134901810Y-72434409D01*
X134677056Y-72975677D01*
X134676545Y-73561752D01*
X134900353Y-74103411D01*
X135314409Y-74518190D01*
X135366392Y-74539775D01*
X135316589Y-74560353D01*
X134901810Y-74974409D01*
X134677056Y-75515677D01*
X134676545Y-76101752D01*
X134900353Y-76643411D01*
X135314409Y-77058190D01*
X135855677Y-77282944D01*
X136441752Y-77283455D01*
X136983411Y-77059647D01*
X137098258Y-76945000D01*
X138219868Y-76945000D01*
X139403152Y-78128285D01*
X139359050Y-78350000D01*
X139498731Y-79052224D01*
X139896509Y-79647541D01*
X140491826Y-80045319D01*
X141194050Y-80185000D01*
X141265950Y-80185000D01*
X141968174Y-80045319D01*
X142563491Y-79647541D01*
X142961269Y-79052224D01*
X143100950Y-78350000D01*
X142961269Y-77647776D01*
X142563491Y-77052459D01*
X141968174Y-76654681D01*
X141265950Y-76515000D01*
X141194050Y-76515000D01*
X141032306Y-76547173D01*
X139492566Y-75007434D01*
X139414569Y-74955318D01*
X139124346Y-74761397D01*
X138690000Y-74675000D01*
X137098584Y-74675000D01*
X136985591Y-74561810D01*
X136933608Y-74540225D01*
X136983411Y-74519647D01*
X137098258Y-74405000D01*
X142699521Y-74405000D01*
X142729199Y-74434730D01*
X143403395Y-74714681D01*
X144133403Y-74715318D01*
X144808086Y-74436545D01*
X144989948Y-74255000D01*
X151860200Y-74255000D01*
X152279199Y-74674730D01*
X152953395Y-74954681D01*
X153683403Y-74955318D01*
X154358086Y-74676545D01*
X154874730Y-74160801D01*
X155154681Y-73486605D01*
X155155318Y-72756597D01*
X154876545Y-72081914D01*
X154360801Y-71565270D01*
X153686605Y-71285319D01*
X152956597Y-71284682D01*
X152281914Y-71563455D01*
X151859633Y-71985000D01*
X145385667Y-71985000D01*
X145326545Y-71841914D01*
X144810801Y-71325270D01*
X144136605Y-71045319D01*
X143406597Y-71044682D01*
X142731914Y-71323455D01*
X142215270Y-71839199D01*
X142092443Y-72135000D01*
X137098584Y-72135000D01*
X136985591Y-72021810D01*
X136933608Y-72000225D01*
X136983411Y-71979647D01*
X137398190Y-71565591D01*
X137621915Y-71026801D01*
X140798199Y-71026801D01*
X141232545Y-70940404D01*
X141600765Y-70694367D01*
X149332566Y-62962566D01*
X149363912Y-62915654D01*
X149578603Y-62594346D01*
X149665000Y-62160000D01*
X149665000Y-58483403D01*
X151484682Y-58483403D01*
X151763455Y-59158086D01*
X152279199Y-59674730D01*
X152953395Y-59954681D01*
X153683403Y-59955318D01*
X154358086Y-59676545D01*
X154874730Y-59160801D01*
X155154681Y-58486605D01*
X155155318Y-57756597D01*
X154876545Y-57081914D01*
X154360801Y-56565270D01*
X153686605Y-56285319D01*
X152956597Y-56284682D01*
X152281914Y-56563455D01*
X151765270Y-57079199D01*
X151485319Y-57753395D01*
X151484682Y-58483403D01*
X149665000Y-58483403D01*
X149665000Y-55900000D01*
X149578603Y-55465654D01*
X149332566Y-55097434D01*
X146802566Y-52567434D01*
X146724093Y-52515000D01*
X146434346Y-52321397D01*
X146000000Y-52235000D01*
X142802097Y-52235000D01*
X142693491Y-52072459D01*
X142098174Y-51674681D01*
X141395950Y-51535000D01*
X141324050Y-51535000D01*
X140621826Y-51674681D01*
X140026509Y-52072459D01*
X139628731Y-52667776D01*
X139489050Y-53370000D01*
X139628731Y-54072224D01*
X140026509Y-54667541D01*
X140621826Y-55065319D01*
X141324050Y-55205000D01*
X141395950Y-55205000D01*
X142098174Y-55065319D01*
X142693491Y-54667541D01*
X142802097Y-54505000D01*
X145529868Y-54505000D01*
X147395000Y-56370132D01*
X147395000Y-61689868D01*
X140328067Y-68756801D01*
X137509801Y-68756801D01*
X137622944Y-68484323D01*
X137623085Y-68322047D01*
X138572566Y-67372566D01*
X138818603Y-67004346D01*
X138905000Y-66570000D01*
X138905000Y-64710854D01*
X139105317Y-64673162D01*
X139321441Y-64534090D01*
X139466431Y-64321890D01*
X139517440Y-64070000D01*
X139517440Y-62827692D01*
X142857236Y-59487896D01*
X143403395Y-59714681D01*
X144133403Y-59715318D01*
X144808086Y-59436545D01*
X145324730Y-58920801D01*
X145604681Y-58246605D01*
X145605318Y-57516597D01*
X145326545Y-56841914D01*
X144810801Y-56325270D01*
X144136605Y-56045319D01*
X143406597Y-56044682D01*
X142731914Y-56323455D01*
X142215270Y-56839199D01*
X142138968Y-57022955D01*
X142120941Y-57035000D01*
X142057434Y-57077434D01*
X137912308Y-61222560D01*
X136670000Y-61222560D01*
X136434683Y-61266838D01*
X136218559Y-61405910D01*
X136073569Y-61618110D01*
X136022560Y-61870000D01*
X136022560Y-64070000D01*
X136066838Y-64305317D01*
X136205910Y-64521441D01*
X136418110Y-64666431D01*
X136635000Y-64710352D01*
X136635000Y-66099868D01*
X136018184Y-66716684D01*
X135858248Y-66716545D01*
X135316589Y-66940353D01*
X134901810Y-67354409D01*
X134677056Y-67895677D01*
X134676545Y-68481752D01*
X130015640Y-68481752D01*
X130015640Y-67351800D01*
X129971362Y-67116483D01*
X129832290Y-66900359D01*
X129620090Y-66755369D01*
X129368200Y-66704360D01*
X128745000Y-66704360D01*
X128745000Y-64280901D01*
X128870821Y-64196830D01*
X129246922Y-63633956D01*
X129378991Y-62970000D01*
X129246922Y-62306044D01*
X128870821Y-61743170D01*
X128307947Y-61367069D01*
X127643991Y-61235000D01*
X127576009Y-61235000D01*
X126912053Y-61367069D01*
X126349179Y-61743170D01*
X125973078Y-62306044D01*
X125841009Y-62970000D01*
X125973078Y-63633956D01*
X126349179Y-64196830D01*
X126475000Y-64280901D01*
X126475000Y-67055000D01*
X121660132Y-67055000D01*
X121652566Y-67047434D01*
X121526743Y-66963362D01*
X121284346Y-66801397D01*
X120850000Y-66715000D01*
X112420132Y-66715000D01*
X119762566Y-59372566D01*
X120008603Y-59004346D01*
X120095000Y-58570000D01*
X120095000Y-58217440D01*
X120160000Y-58217440D01*
X120395317Y-58173162D01*
X120611441Y-58034090D01*
X120756431Y-57821890D01*
X120807440Y-57570000D01*
X120807440Y-55170000D01*
X120763162Y-54934683D01*
X120624090Y-54718559D01*
X120411890Y-54573569D01*
X120160000Y-54522560D01*
X117760000Y-54522560D01*
X117524683Y-54566838D01*
X117308559Y-54705910D01*
X117163569Y-54918110D01*
X117112560Y-55170000D01*
X117112560Y-57570000D01*
X117156838Y-57805317D01*
X117295910Y-58021441D01*
X117508110Y-58166431D01*
X117716281Y-58208587D01*
X111042308Y-64882560D01*
X109150000Y-64882560D01*
X108914683Y-64926838D01*
X108698559Y-65065910D01*
X108553569Y-65278110D01*
X108502560Y-65530000D01*
X98505000Y-65530000D01*
X98505000Y-65197440D01*
X98570000Y-65197440D01*
X98805317Y-65153162D01*
X99021441Y-65014090D01*
X99166431Y-64801890D01*
X99217440Y-64550000D01*
X99217440Y-64485000D01*
X99570000Y-64485000D01*
X100004346Y-64398603D01*
X100372566Y-64152566D01*
X103190132Y-61335000D01*
X111680000Y-61335000D01*
X112114346Y-61248603D01*
X112482566Y-61002566D01*
X116442566Y-57042566D01*
X116688604Y-56674345D01*
X116775000Y-56240000D01*
X116775000Y-50320132D01*
X119600132Y-47495000D01*
X147016778Y-47495000D01*
X147016838Y-47495317D01*
X147155910Y-47711441D01*
X147368110Y-47856431D01*
X147620000Y-47907440D01*
X149420000Y-47907440D01*
X149655317Y-47863162D01*
X149871441Y-47724090D01*
X149925000Y-47645704D01*
X149925000Y-51380000D01*
X150011397Y-51814346D01*
X150183863Y-52072459D01*
X150257434Y-52182566D01*
X151047435Y-52972567D01*
X151415655Y-53218604D01*
X151850001Y-53305001D01*
X154765056Y-53305001D01*
X154764682Y-53733403D01*
X155043455Y-54408086D01*
X155559199Y-54924730D01*
X156233395Y-55204681D01*
X156963403Y-55205318D01*
X157638086Y-54926545D01*
X158154730Y-54410801D01*
X158434681Y-53736605D01*
X158435318Y-53006597D01*
X158156545Y-52331914D01*
X157640801Y-51815270D01*
X156966605Y-51535319D01*
X156369930Y-51534798D01*
X156202567Y-51367435D01*
X156135407Y-51322560D01*
X155834347Y-51121398D01*
X155400001Y-51035001D01*
X152320133Y-51035001D01*
X152195000Y-50909868D01*
X152195000Y-47416197D01*
X152330000Y-47214155D01*
X152484519Y-47445409D01*
X152982509Y-47778155D01*
X153569928Y-47895000D01*
X153630072Y-47895000D01*
X154217491Y-47778155D01*
X154641263Y-47495000D01*
X159209844Y-47495000D01*
X159226838Y-47585317D01*
X159365910Y-47801441D01*
X159578110Y-47946431D01*
X159830000Y-47997440D01*
X161630000Y-47997440D01*
X161865317Y-47953162D01*
X162081441Y-47814090D01*
X162135000Y-47735704D01*
X162135000Y-72479868D01*
X158599867Y-76015001D01*
X157669999Y-76015001D01*
X157235653Y-76101398D01*
X156867433Y-76347435D01*
X156699668Y-76515200D01*
X156106597Y-76514682D01*
X155431914Y-76793455D01*
X154915270Y-77309199D01*
X154635319Y-77983395D01*
X154634682Y-78713403D01*
X154913455Y-79388086D01*
X155429199Y-79904730D01*
X156103395Y-80184681D01*
X156833403Y-80185318D01*
X157508086Y-79906545D01*
X158024730Y-79390801D01*
X158304681Y-78716605D01*
X158305058Y-78285001D01*
X159069999Y-78285001D01*
X159504345Y-78198604D01*
X159872565Y-77952567D01*
X164072566Y-73752566D01*
X164318603Y-73384346D01*
X164346638Y-73243403D01*
X164405000Y-72950000D01*
X164405000Y-69787325D01*
X168394146Y-69787325D01*
X169143871Y-71601801D01*
X170530897Y-72991250D01*
X172344061Y-73744141D01*
X174307325Y-73745854D01*
X176121801Y-72996129D01*
X177511250Y-71609103D01*
X178264141Y-69795939D01*
X178265854Y-67832675D01*
X177516129Y-66018199D01*
X176129103Y-64628750D01*
X174315939Y-63875859D01*
X172352675Y-63874146D01*
X170538199Y-64623871D01*
X169148750Y-66010897D01*
X168395859Y-67824061D01*
X168394146Y-69787325D01*
X164405000Y-69787325D01*
X164405000Y-65736009D01*
X164745000Y-65736009D01*
X164745000Y-65803991D01*
X164877069Y-66467947D01*
X165253170Y-67030821D01*
X165816044Y-67406922D01*
X166480000Y-67538991D01*
X167143956Y-67406922D01*
X167706830Y-67030821D01*
X168082931Y-66467947D01*
X168215000Y-65803991D01*
X168215000Y-65736009D01*
X168082931Y-65072053D01*
X167706830Y-64509179D01*
X167143956Y-64133078D01*
X166480000Y-64001009D01*
X165816044Y-64133078D01*
X165253170Y-64509179D01*
X164877069Y-65072053D01*
X164745000Y-65736009D01*
X164405000Y-65736009D01*
X164405000Y-51970000D01*
X164732560Y-51970000D01*
X164732560Y-54170000D01*
X164776838Y-54405317D01*
X164915910Y-54621441D01*
X165128110Y-54766431D01*
X165380000Y-54817440D01*
X167580000Y-54817440D01*
X167815317Y-54773162D01*
X168031441Y-54634090D01*
X168176431Y-54421890D01*
X168227440Y-54170000D01*
X168227440Y-54067325D01*
X168394146Y-54067325D01*
X169143871Y-55881801D01*
X170530897Y-57271250D01*
X172344061Y-58024141D01*
X174307325Y-58025854D01*
X176121801Y-57276129D01*
X177511250Y-55889103D01*
X178264141Y-54075939D01*
X178265854Y-52112675D01*
X177516129Y-50298199D01*
X176129103Y-48908750D01*
X174315939Y-48155859D01*
X172352675Y-48154146D01*
X170538199Y-48903871D01*
X169148750Y-50290897D01*
X168395859Y-52104061D01*
X168394146Y-54067325D01*
X168227440Y-54067325D01*
X168227440Y-51970000D01*
X168183162Y-51734683D01*
X168044090Y-51518559D01*
X167831890Y-51373569D01*
X167580000Y-51322560D01*
X165380000Y-51322560D01*
X165144683Y-51366838D01*
X164928559Y-51505910D01*
X164783569Y-51718110D01*
X164732560Y-51970000D01*
X164405000Y-51970000D01*
X164405000Y-47506197D01*
X164718227Y-47037419D01*
X164835072Y-46450000D01*
X164718227Y-45862581D01*
X164385481Y-45364591D01*
X163887491Y-45031845D01*
X163300072Y-44915000D01*
X163239928Y-44915000D01*
X162652509Y-45031845D01*
X162231974Y-45312837D01*
X162094090Y-45098559D01*
X161881890Y-44953569D01*
X161630000Y-44902560D01*
X159830000Y-44902560D01*
X159594683Y-44946838D01*
X159378559Y-45085910D01*
X159283523Y-45225000D01*
X154641263Y-45225000D01*
X154217491Y-44941845D01*
X153630072Y-44825000D01*
X153569928Y-44825000D01*
X152982509Y-44941845D01*
X152484519Y-45274591D01*
X152330000Y-45505845D01*
X152175481Y-45274591D01*
X151677491Y-44941845D01*
X151090072Y-44825000D01*
X151029928Y-44825000D01*
X150442509Y-44941845D01*
X150021974Y-45222837D01*
X149884090Y-45008559D01*
X149671890Y-44863569D01*
X149420000Y-44812560D01*
X147620000Y-44812560D01*
X147384683Y-44856838D01*
X147168559Y-44995910D01*
X147023569Y-45208110D01*
X147020149Y-45225000D01*
X119130000Y-45225000D01*
X118695654Y-45311397D01*
X118327434Y-45557434D01*
X114837434Y-49047434D01*
X114591397Y-49415654D01*
X114505000Y-49850000D01*
X114505000Y-55769868D01*
X111209868Y-59065000D01*
X102720000Y-59065000D01*
X102285654Y-59151397D01*
X101954652Y-59372566D01*
X101917434Y-59397434D01*
X99209114Y-62105754D01*
X99173162Y-61914683D01*
X99034090Y-61698559D01*
X98821890Y-61553569D01*
X98570000Y-61502560D01*
X96170000Y-61502560D01*
X95934683Y-61546838D01*
X95718559Y-61685910D01*
X95573569Y-61898110D01*
X95522560Y-62150000D01*
X95522560Y-64550000D01*
X95566838Y-64785317D01*
X95705910Y-65001441D01*
X95918110Y-65146431D01*
X96126281Y-65188587D01*
X95149868Y-66165000D01*
X85887852Y-66165000D01*
X85595722Y-65872360D01*
X84976638Y-65615293D01*
X84306303Y-65614708D01*
X83686771Y-65870694D01*
X83212360Y-66344278D01*
X82955293Y-66963362D01*
X82954708Y-67633697D01*
X75665783Y-67633697D01*
X75665854Y-67552675D01*
X74977764Y-65887368D01*
X77822566Y-63042566D01*
X78068603Y-62674346D01*
X78155000Y-62240000D01*
X78068603Y-61805655D01*
X77822566Y-61437434D01*
X77454345Y-61191397D01*
X77020000Y-61105000D01*
X76585654Y-61191397D01*
X76217434Y-61437434D01*
X73371543Y-64283325D01*
X71715939Y-63595859D01*
X69752675Y-63594146D01*
X67938199Y-64343871D01*
X66548750Y-65730897D01*
X65795859Y-67544061D01*
X65794146Y-69507325D01*
X64970000Y-69507325D01*
X64970000Y-51227325D01*
X65604146Y-51227325D01*
X66353871Y-53041801D01*
X67740897Y-54431250D01*
X69554061Y-55184141D01*
X71517325Y-55185854D01*
X73182632Y-54497764D01*
X76627433Y-57942566D01*
X76916412Y-58135655D01*
X76995654Y-58188603D01*
X77430000Y-58275000D01*
X83432078Y-58275000D01*
X83684278Y-58527640D01*
X84303362Y-58784707D01*
X84973697Y-58785292D01*
X85593229Y-58529306D01*
X86067640Y-58055722D01*
X86324707Y-57436638D01*
X86325292Y-56766303D01*
X86069306Y-56146771D01*
X85595722Y-55672360D01*
X84976638Y-55415293D01*
X84306303Y-55414708D01*
X83686771Y-55670694D01*
X83351881Y-56005000D01*
X77900133Y-56005000D01*
X74786675Y-52891542D01*
X75474141Y-51235939D01*
X75474390Y-50950000D01*
X82942560Y-50950000D01*
X82942560Y-53050000D01*
X82986838Y-53285317D01*
X83125910Y-53501441D01*
X83338110Y-53646431D01*
X83590000Y-53697440D01*
X85690000Y-53697440D01*
X85925317Y-53653162D01*
X86141441Y-53514090D01*
X86286431Y-53301890D01*
X86320227Y-53135000D01*
X93520000Y-53135000D01*
X93954346Y-53048603D01*
X94322566Y-52802566D01*
X94568603Y-52434346D01*
X94655000Y-52000000D01*
X94568603Y-51565654D01*
X94322566Y-51197434D01*
X93954346Y-50951397D01*
X93520000Y-50865000D01*
X86321446Y-50865000D01*
X86293162Y-50714683D01*
X86154090Y-50498559D01*
X85941890Y-50353569D01*
X85690000Y-50302560D01*
X83590000Y-50302560D01*
X83354683Y-50346838D01*
X83138559Y-50485910D01*
X82993569Y-50698110D01*
X82942560Y-50950000D01*
X75474390Y-50950000D01*
X75475854Y-49272675D01*
X74726129Y-47458199D01*
X73339103Y-46068750D01*
X71525939Y-45315859D01*
X69562675Y-45314146D01*
X67748199Y-46063871D01*
X66358750Y-47450897D01*
X65605859Y-49264061D01*
X65604146Y-51227325D01*
X64970000Y-51227325D01*
X64970000Y-43290000D01*
X180530000Y-43290000D01*
X180530000Y-93280000D01*
M02*
